<svg aria-roledescription="flowchart-v2" role="graphics-document document" viewBox="0 0 1468.640625 428" style="max-width: 1468.64px; background-color: white;" class="flowchart" xmlns:xlink="http://www.w3.org/1999/xlink" xmlns="http://www.w3.org/2000/svg" width="100%" id="my-svg"><style>#my-svg{font-family:Arial,sans-serif;font-size:16px;fill:#000000;}@keyframes edge-animation-frame{from{stroke-dashoffset:0;}}@keyframes dash{to{stroke-dashoffset:0;}}#my-svg .edge-animation-slow{stroke-dasharray:9,5!important;stroke-dashoffset:900;animation:dash 50s linear infinite;stroke-linecap:round;}#my-svg .edge-animation-fast{stroke-dasharray:9,5!important;stroke-dashoffset:900;animation:dash 20s linear infinite;stroke-linecap:round;}#my-svg .error-icon{fill:#add8e6;}#my-svg .error-text{fill:#000000;stroke:#000000;}#my-svg .edge-thickness-normal{stroke-width:1px;}#my-svg .edge-thickness-thick{stroke-width:3.5px;}#my-svg .edge-pattern-solid{stroke-dasharray:0;}#my-svg .edge-thickness-invisible{stroke-width:0;fill:none;}#my-svg .edge-pattern-dashed{stroke-dasharray:3;}#my-svg .edge-pattern-dotted{stroke-dasharray:2;}#my-svg .marker{fill:#333333;stroke:#333333;}#my-svg .marker.cross{stroke:#333333;}#my-svg svg{font-family:Arial,sans-serif;font-size:16px;}#my-svg p{margin:0;}#my-svg .label{font-family:Arial,sans-serif;color:#000000;}#my-svg .cluster-label text{fill:#000000;}#my-svg .cluster-label span{color:#000000;}#my-svg .cluster-label span p{background-color:transparent;}#my-svg .label text,#my-svg span{fill:#000000;color:#000000;}#my-svg .node rect,#my-svg .node circle,#my-svg .node ellipse,#my-svg .node polygon,#my-svg .node path{fill:#dab3ff;stroke:#4b0082;stroke-width:1px;}#my-svg .rough-node .label text,#my-svg .node .label text,#my-svg .image-shape .label,#my-svg .icon-shape .label{text-anchor:middle;}#my-svg .node .katex path{fill:#000;stroke:#000;stroke-width:1px;}#my-svg .rough-node .label,#my-svg .node .label,#my-svg .image-shape .label,#my-svg .icon-shape .label{text-align:center;}#my-svg .node.clickable{cursor:pointer;}#my-svg .root .anchor path{fill:#333333!important;stroke-width:0;stroke:#333333;}#my-svg .arrowheadPath{fill:#ffffff;}#my-svg .edgePath .path{stroke:#333333;stroke-width:2.0px;}#my-svg .flowchart-link{stroke:#333333;fill:none;}#my-svg .edgeLabel{background-color:#ffffff;text-align:center;}#my-svg .edgeLabel p{background-color:#ffffff;}#my-svg .edgeLabel rect{opacity:0.5;background-color:#ffffff;fill:#ffffff;}#my-svg .labelBkg{background-color:rgba(255, 255, 255, 0.5);}#my-svg .cluster rect{fill:#add8e6;stroke:#003366;stroke-width:1px;}#my-svg .cluster text{fill:#000000;}#my-svg .cluster span{color:#000000;}#my-svg div.mermaidTooltip{position:absolute;text-align:center;max-width:200px;padding:2px;font-family:Arial,sans-serif;font-size:12px;background:#add8e6;border:1px solid #003366;border-radius:2px;pointer-events:none;z-index:100;}#my-svg .flowchartTitleText{text-anchor:middle;font-size:18px;fill:#000000;}#my-svg rect.text{fill:none;stroke-width:0;}#my-svg .icon-shape,#my-svg .image-shape{background-color:#ffffff;text-align:center;}#my-svg .icon-shape p,#my-svg .image-shape p{background-color:#ffffff;padding:2px;}#my-svg .icon-shape rect,#my-svg .image-shape rect{opacity:0.5;background-color:#ffffff;fill:#ffffff;}#my-svg .label-icon{display:inline-block;height:1em;overflow:visible;vertical-align:-0.125em;}#my-svg .node .label-icon path{fill:currentColor;stroke:revert;stroke-width:revert;}#my-svg :root{--mermaid-font-family:"trebuchet ms",verdana,arial,sans-serif;}</style><g><marker orient="auto" markerHeight="8" markerWidth="8" markerUnits="userSpaceOnUse" refY="5" refX="5" viewBox="0 0 10 10" class="marker flowchart-v2" id="my-svg_flowchart-v2-pointEnd"><path style="stroke-width: 1; stroke-dasharray: 1, 0;" class="arrowMarkerPath" d="M 0 0 L 10 5 L 0 10 z"/></marker><marker orient="auto" markerHeight="8" markerWidth="8" markerUnits="userSpaceOnUse" refY="5" refX="4.5" viewBox="0 0 10 10" class="marker flowchart-v2" id="my-svg_flowchart-v2-pointStart"><path style="stroke-width: 1; stroke-dasharray: 1, 0;" class="arrowMarkerPath" d="M 0 5 L 10 10 L 10 0 z"/></marker><marker orient="auto" markerHeight="11" markerWidth="11" markerUnits="userSpaceOnUse" refY="5" refX="11" viewBox="0 0 10 10" class="marker flowchart-v2" id="my-svg_flowchart-v2-circleEnd"><circle style="stroke-width: 1; stroke-dasharray: 1, 0;" class="arrowMarkerPath" r="5" cy="5" cx="5"/></marker><marker orient="auto" markerHeight="11" markerWidth="11" markerUnits="userSpaceOnUse" refY="5" refX="-1" viewBox="0 0 10 10" class="marker flowchart-v2" id="my-svg_flowchart-v2-circleStart"><circle style="stroke-width: 1; stroke-dasharray: 1, 0;" class="arrowMarkerPath" r="5" cy="5" cx="5"/></marker><marker orient="auto" markerHeight="11" markerWidth="11" markerUnits="userSpaceOnUse" refY="5.2" refX="12" viewBox="0 0 11 11" class="marker cross flowchart-v2" id="my-svg_flowchart-v2-crossEnd"><path style="stroke-width: 2; stroke-dasharray: 1, 0;" class="arrowMarkerPath" d="M 1,1 l 9,9 M 10,1 l -9,9"/></marker><marker orient="auto" markerHeight="11" markerWidth="11" markerUnits="userSpaceOnUse" refY="5.2" refX="-1" viewBox="0 0 11 11" class="marker cross flowchart-v2" id="my-svg_flowchart-v2-crossStart"><path style="stroke-width: 2; stroke-dasharray: 1, 0;" class="arrowMarkerPath" d="M 1,1 l 9,9 M 10,1 l -9,9"/></marker><g class="root"><g class="clusters"><g data-look="classic" id="DataAndServices" class="cluster"><rect height="104" width="616.796875" y="316" x="843.84375" style=""/><g transform="translate(1094.8828125, 316)" class="cluster-label"><foreignObject height="24" width="114.71875"><div style="display: table-cell; white-space: nowrap; line-height: 1.5; max-width: 200px; text-align: center;" xmlns="http://www.w3.org/1999/xhtml"><span class="nodeLabel"><p>Data &amp; Services</p></span></div></foreignObject></g></g><g data-look="classic" id="JavaScript" class="cluster"><rect height="104" width="1041.453125" y="162" x="8" style=""/><g transform="translate(471.359375, 162)" class="cluster-label"><foreignObject height="24" width="114.734375"><div style="display: table-cell; white-space: nowrap; line-height: 1.5; max-width: 200px; text-align: center;" xmlns="http://www.w3.org/1999/xhtml"><span class="nodeLabel"><p>Builder Modules</p></span></div></foreignObject></g></g><g data-look="classic" id="HTMLPages" class="cluster"><rect height="104" width="1276.8046875" y="8" x="96.1484375" style=""/><g transform="translate(634.55078125, 8)" class="cluster-label"><foreignObject height="48" width="200"><div style="display: table; white-space: break-spaces; line-height: 1.5; max-width: 200px; text-align: center; width: 200px;" xmlns="http://www.w3.org/1999/xhtml"><span class="nodeLabel"><p>Prompt Forge – Profile Builder</p></span></div></foreignObject></g></g></g><g class="edgePaths"><path marker-end="url(#my-svg_flowchart-v2-pointEnd)" style="" class="edge-thickness-normal edge-pattern-solid edge-thickness-normal edge-pattern-solid flowchart-link" id="L_ProfilePage_BuilderFormPane_0" d="M687.008,65.798L595.198,73.498C503.388,81.198,319.768,96.599,227.958,108.466C136.148,120.333,136.148,128.667,136.148,137C136.148,145.333,136.148,153.667,136.148,161.333C136.148,169,136.148,176,136.148,179.5L136.148,183"/><path marker-end="url(#my-svg_flowchart-v2-pointEnd)" style="" class="edge-thickness-normal edge-pattern-solid edge-thickness-normal edge-pattern-solid flowchart-link" id="L_ProfilePage_FieldsPane_0" d="M687.008,68.865L630.949,76.054C574.891,83.243,462.773,97.622,406.715,108.977C350.656,120.333,350.656,128.667,350.656,137C350.656,145.333,350.656,153.667,350.656,161.333C350.656,169,350.656,176,350.656,179.5L350.656,183"/><path marker-end="url(#my-svg_flowchart-v2-pointEnd)" style="" class="edge-thickness-normal edge-pattern-solid edge-thickness-normal edge-pattern-solid flowchart-link" id="L_ProfilePage_SnippetsPane_0" d="M687.008,77.71L664.702,83.425C642.396,89.14,597.784,100.57,575.478,110.452C553.172,120.333,553.172,128.667,553.172,137C553.172,145.333,553.172,153.667,553.172,161.333C553.172,169,553.172,176,553.172,179.5L553.172,183"/><path marker-end="url(#my-svg_flowchart-v2-pointEnd)" style="" class="edge-thickness-normal edge-pattern-solid edge-thickness-normal edge-pattern-solid flowchart-link" id="L_ProfilePage_StylesPane_0" d="M756.133,87L756.133,91.167C756.133,95.333,756.133,103.667,756.133,112C756.133,120.333,756.133,128.667,756.133,137C756.133,145.333,756.133,153.667,756.133,161.333C756.133,169,756.133,176,756.133,179.5L756.133,183"/><path marker-end="url(#my-svg_flowchart-v2-pointEnd)" style="" class="edge-thickness-normal edge-pattern-solid edge-thickness-normal edge-pattern-solid flowchart-link" id="L_ProfilePage_SavePane_0" d="M825.258,78.912L845.414,84.427C865.57,89.941,905.883,100.971,926.039,110.652C946.195,120.333,946.195,128.667,946.195,137C946.195,145.333,946.195,153.667,946.195,161.333C946.195,169,946.195,176,946.195,179.5L946.195,183"/><path marker-end="url(#my-svg_flowchart-v2-pointEnd)" style="" class="edge-thickness-normal edge-pattern-solid edge-thickness-normal edge-pattern-solid flowchart-link" id="L_SavePane_ProfilesAPI_0" d="M946.195,241L946.195,245.167C946.195,249.333,946.195,257.667,946.195,266C946.195,274.333,946.195,282.667,946.195,291C946.195,299.333,946.195,307.667,946.195,315.333C946.195,323,946.195,330,946.195,333.5L946.195,337"/><path marker-end="url(#my-svg_flowchart-v2-pointEnd)" style="" class="edge-thickness-normal edge-pattern-solid edge-thickness-normal edge-pattern-solid flowchart-link" id="L_ProfilePage_MessagesData_0" d="M825.258,69.198L878.866,76.332C932.474,83.466,1039.69,97.733,1093.298,109.033C1146.906,120.333,1146.906,128.667,1146.906,137C1146.906,145.333,1146.906,153.667,1146.906,166.5C1146.906,179.333,1146.906,196.667,1146.906,214C1146.906,231.333,1146.906,248.667,1146.906,261.5C1146.906,274.333,1146.906,282.667,1146.906,291C1146.906,299.333,1146.906,307.667,1146.906,315.333C1146.906,323,1146.906,330,1146.906,333.5L1146.906,337"/><path marker-end="url(#my-svg_flowchart-v2-pointEnd)" style="" class="edge-thickness-normal edge-pattern-solid edge-thickness-normal edge-pattern-solid flowchart-link" id="L_ProfilePage_ModelsData_0" d="M825.258,66.023L913.207,73.686C1001.156,81.349,1177.055,96.674,1265.004,108.504C1352.953,120.333,1352.953,128.667,1352.953,137C1352.953,145.333,1352.953,153.667,1352.953,166.5C1352.953,179.333,1352.953,196.667,1352.953,214C1352.953,231.333,1352.953,248.667,1352.953,261.5C1352.953,274.333,1352.953,282.667,1352.953,291C1352.953,299.333,1352.953,307.667,1352.953,315.333C1352.953,323,1352.953,330,1352.953,333.5L1352.953,337"/></g><g class="edgeLabels"><g class="edgeLabel"><g transform="translate(0, 0)" class="label"><foreignObject height="0" width="0"><div style="display: table-cell; white-space: nowrap; line-height: 1.5; max-width: 200px; text-align: center;" class="labelBkg" xmlns="http://www.w3.org/1999/xhtml"><span class="edgeLabel"></span></div></foreignObject></g></g><g class="edgeLabel"><g transform="translate(0, 0)" class="label"><foreignObject height="0" width="0"><div style="display: table-cell; white-space: nowrap; line-height: 1.5; max-width: 200px; text-align: center;" class="labelBkg" xmlns="http://www.w3.org/1999/xhtml"><span class="edgeLabel"></span></div></foreignObject></g></g><g class="edgeLabel"><g transform="translate(0, 0)" class="label"><foreignObject height="0" width="0"><div style="display: table-cell; white-space: nowrap; line-height: 1.5; max-width: 200px; text-align: center;" class="labelBkg" xmlns="http://www.w3.org/1999/xhtml"><span class="edgeLabel"></span></div></foreignObject></g></g><g class="edgeLabel"><g transform="translate(0, 0)" class="label"><foreignObject height="0" width="0"><div style="display: table-cell; white-space: nowrap; line-height: 1.5; max-width: 200px; text-align: center;" class="labelBkg" xmlns="http://www.w3.org/1999/xhtml"><span class="edgeLabel"></span></div></foreignObject></g></g><g class="edgeLabel"><g transform="translate(0, 0)" class="label"><foreignObject height="0" width="0"><div style="display: table-cell; white-space: nowrap; line-height: 1.5; max-width: 200px; text-align: center;" class="labelBkg" xmlns="http://www.w3.org/1999/xhtml"><span class="edgeLabel"></span></div></foreignObject></g></g><g class="edgeLabel"><g transform="translate(0, 0)" class="label"><foreignObject height="0" width="0"><div style="display: table-cell; white-space: nowrap; line-height: 1.5; max-width: 200px; text-align: center;" class="labelBkg" xmlns="http://www.w3.org/1999/xhtml"><span class="edgeLabel"></span></div></foreignObject></g></g><g class="edgeLabel"><g transform="translate(0, 0)" class="label"><foreignObject height="0" width="0"><div style="display: table-cell; white-space: nowrap; line-height: 1.5; max-width: 200px; text-align: center;" class="labelBkg" xmlns="http://www.w3.org/1999/xhtml"><span class="edgeLabel"></span></div></foreignObject></g></g><g class="edgeLabel"><g transform="translate(0, 0)" class="label"><foreignObject height="0" width="0"><div style="display: table-cell; white-space: nowrap; line-height: 1.5; max-width: 200px; text-align: center;" class="labelBkg" xmlns="http://www.w3.org/1999/xhtml"><span class="edgeLabel"></span></div></foreignObject></g></g></g><g class="nodes"><g transform="translate(756.1328125, 60)" id="flowchart-ProfilePage-0" class="node default primary"><rect height="54" width="138.25" y="-27" x="-69.125" style="" class="basic label-container"/><g transform="translate(-39.125, -12)" style="" class="label"><rect/><foreignObject height="24" width="78.25"><div style="display: table-cell; white-space: nowrap; line-height: 1.5; max-width: 200px; text-align: center;" xmlns="http://www.w3.org/1999/xhtml"><span class="nodeLabel"><p>profile.html</p></span></div></foreignObject></g></g><g transform="translate(136.1484375, 214)" id="flowchart-BuilderFormPane-1" class="node default secondary"><rect height="54" width="186.296875" y="-27" x="-93.1484375" style="" class="basic label-container"/><g transform="translate(-63.1484375, -12)" style="" class="label"><rect/><foreignObject height="24" width="126.296875"><div style="display: table-cell; white-space: nowrap; line-height: 1.5; max-width: 200px; text-align: center;" xmlns="http://www.w3.org/1999/xhtml"><span class="nodeLabel"><p>Builder form pane</p></span></div></foreignObject></g></g><g transform="translate(350.65625, 214)" id="flowchart-FieldsPane-2" class="node default secondary"><rect height="54" width="142.71875" y="-27" x="-71.359375" style="" class="basic label-container"/><g transform="translate(-41.359375, -12)" style="" class="label"><rect/><foreignObject height="24" width="82.71875"><div style="display: table-cell; white-space: nowrap; line-height: 1.5; max-width: 200px; text-align: center;" xmlns="http://www.w3.org/1999/xhtml"><span class="nodeLabel"><p>Fields pane</p></span></div></foreignObject></g></g><g transform="translate(553.171875, 214)" id="flowchart-SnippetsPane-3" class="node default secondary"><rect height="54" width="162.3125" y="-27" x="-81.15625" style="" class="basic label-container"/><g transform="translate(-51.15625, -12)" style="" class="label"><rect/><foreignObject height="24" width="102.3125"><div style="display: table-cell; white-space: nowrap; line-height: 1.5; max-width: 200px; text-align: center;" xmlns="http://www.w3.org/1999/xhtml"><span class="nodeLabel"><p>Snippets pane</p></span></div></foreignObject></g></g><g transform="translate(756.1328125, 214)" id="flowchart-StylesPane-4" class="node default secondary"><rect height="54" width="143.609375" y="-27" x="-71.8046875" style="" class="basic label-container"/><g transform="translate(-41.8046875, -12)" style="" class="label"><rect/><foreignObject height="24" width="83.609375"><div style="display: table-cell; white-space: nowrap; line-height: 1.5; max-width: 200px; text-align: center;" xmlns="http://www.w3.org/1999/xhtml"><span class="nodeLabel"><p>Styles pane</p></span></div></foreignObject></g></g><g transform="translate(946.1953125, 214)" id="flowchart-SavePane-5" class="node default secondary"><rect height="54" width="136.515625" y="-27" x="-68.2578125" style="" class="basic label-container"/><g transform="translate(-38.2578125, -12)" style="" class="label"><rect/><foreignObject height="24" width="76.515625"><div style="display: table-cell; white-space: nowrap; line-height: 1.5; max-width: 200px; text-align: center;" xmlns="http://www.w3.org/1999/xhtml"><span class="nodeLabel"><p>Save pane</p></span></div></foreignObject></g></g><g transform="translate(946.1953125, 368)" id="flowchart-ProfilesAPI-6" class="node default tertiary"><rect height="54" width="134.703125" y="-27" x="-67.3515625" style="" class="basic label-container"/><g transform="translate(-37.3515625, -12)" style="" class="label"><rect/><foreignObject height="24" width="74.703125"><div style="display: table-cell; white-space: nowrap; line-height: 1.5; max-width: 200px; text-align: center;" xmlns="http://www.w3.org/1999/xhtml"><span class="nodeLabel"><p>Profile API</p></span></div></foreignObject></g></g><g transform="translate(1146.90625, 368)" id="flowchart-MessagesData-7" class="node default tertiary"><rect height="54" width="166.71875" y="-27" x="-83.359375" style="" class="basic label-container"/><g transform="translate(-53.359375, -12)" style="" class="label"><rect/><foreignObject height="24" width="106.71875"><div style="display: table-cell; white-space: nowrap; line-height: 1.5; max-width: 200px; text-align: center;" xmlns="http://www.w3.org/1999/xhtml"><span class="nodeLabel"><p>messages.json</p></span></div></foreignObject></g></g><g transform="translate(1352.953125, 368)" id="flowchart-ModelsData-8" class="node default tertiary"><rect height="54" width="145.375" y="-27" x="-72.6875" style="" class="basic label-container"/><g transform="translate(-42.6875, -12)" style="" class="label"><rect/><foreignObject height="24" width="85.375"><div style="display: table-cell; white-space: nowrap; line-height: 1.5; max-width: 200px; text-align: center;" xmlns="http://www.w3.org/1999/xhtml"><span class="nodeLabel"><p>models.json</p></span></div></foreignObject></g></g></g></g></g></svg>